<svg width="12" height="7" viewBox="0 0 12 7" fill="none" xmlns="http://www.w3.org/2000/svg">
<path fill-rule="evenodd" clip-rule="evenodd" d="M10.1919 6.66265C10.4522 6.923 10.8743 6.923 11.1347 6.66265C11.395 6.4023 11.395 5.98019 11.1347 5.71984L6.47435 1.05949C6.47229 1.05738 6.47021 1.05527 6.46811 1.05317C6.33741 0.922478 6.16596 0.857391 5.99466 0.857912C5.8247 0.858408 5.65489 0.923495 5.52522 1.05317C5.52313 1.05526 5.52106 1.05735 5.51901 1.05946L0.858633 5.71984C0.598283 5.98019 0.598283 6.4023 0.858633 6.66265C1.11898 6.923 1.54109 6.923 1.80144 6.66265L5.99666 2.46743L10.1919 6.66265Z" fill="#FCFCFC"/>
</svg>
