<svg width="14" height="14" viewBox="0 0 14 14" fill="none" xmlns="http://www.w3.org/2000/svg">
<path d="M12.8909 1.99459C12.5504 1.65393 12.1461 1.38369 11.7011 1.19932C11.2562 1.01494 10.7792 0.920044 10.2976 0.920044C9.8159 0.920044 9.33896 1.01494 8.89399 1.19932C8.44901 1.38369 8.04473 1.65393 7.70422 1.99459L6.99756 2.70126L6.29089 1.99459C5.6031 1.3068 4.67025 0.9204 3.69756 0.9204C2.72487 0.9204 1.79202 1.3068 1.10422 1.99459C0.416428 2.68239 0.0300293 3.61524 0.0300293 4.58793C0.0300293 5.56062 0.416428 6.49347 1.10422 7.18126L1.81089 7.88793L6.99756 13.0746L12.1842 7.88793L12.8909 7.18126C13.2316 6.84076 13.5018 6.43647 13.6862 5.9915C13.8705 5.54653 13.9654 5.06959 13.9654 4.58793C13.9654 4.10627 13.8705 3.62933 13.6862 3.18436C13.5018 2.73938 13.2316 2.3351 12.8909 1.99459Z" fill="#2D3440"/>
</svg>
